<svg xmlns="http://www.w3.org/2000/svg" xmlns:xlink="http://www.w3.org/1999/xlink" version="1.1" x="0px" y="0px" viewBox="0 0 52 65" enable-background="new 0 0 52 52" xml:space="preserve"><g><path d="M49.9859467,29.6839027c-0.1300049-4.4299927-4.0099487-7.9899902-8.4599609-7.5900269   c-2.2900391,0.2000122-4.1700439,1.3700562-5.4299927,3.3700562c-0.6199951,0.9899902-1.0300293,2.1199951-1.2200317,3.3699951   c-0.1699829,1.1900024-1.0299683,4.0299683-5.169981,4.8399658c-1.3200073,0.2600098-2.4400024,0.7399902-3.3300171,1.4199829   c-1.6599731,1.2600098-5.0899658,4.8500366-1.2700195,10.75c0.0800171,0.1500244,2.0400391,3.7700195,6.5599976,3.7700195   c2.0600567,0,4.3100567-0.7700195,6.6800518-2.289978c0.7699585-0.3699951,7.0499878-3.5,10.0999756-9.8099976   C49.9159393,34.4838905,50.0459442,31.8538857,49.9859467,29.6839027z M32.1647186,39.8566933   c-0.0649414,0.0126953-0.1298828,0.0185547-0.1933575,0.0185547c-0.46875,0-0.8867188-0.3305664-0.9804688-0.8076172   c-0.105957-0.5419922,0.2470703-1.0673828,0.7890625-1.1738281c6.0073223-1.1777344,7.1372051-5.7402344,7.3403301-7.1103516   c0.0810547-0.5463867,0.5957031-0.9208984,1.1357422-0.8427734c0.5463867,0.0810547,0.9238281,0.5898438,0.8427734,1.1357422   C40.8468475,32.774662,39.4581757,38.4260292,32.1647186,39.8566933z"/><path d="M32.8759613,21.3538857c1.8099976-3.7399902,1.9700317-6.9899902,1.8900146-9.6799927   c-0.1600342-5.3999634-4.880003-9.7399902-10.3099957-9.25c-2.7800293,0.25-5.0599976,1.6699829-6.5900269,4.1000366   c-0.7600098,1.2099609-1.2600098,2.5899658-1.4899902,4.1199951c-0.2199707,1.5299683-1.330018,5.2099609-6.6599741,6.2600098   c-1.6100464,0.3099976-2.9800415,0.8899536-4.0599976,1.7199707c-2.0200195,1.539978-6.1900024,5.9099731-1.5300293,13.1099854   c0.1000366,0.1900024,2.4199829,4.5499878,7.9400024,4.5499878c2.5300293,0,5.3099985-0.9400024,8.2800303-2.789978   C21.1859608,33.0938759,29.0559559,29.2238808,32.8759613,21.3538857z M11.4410868,22.8864784   c-0.0649414,0.0126953-0.1298828,0.0185547-0.1933594,0.0185547c-0.46875,0-0.8867188-0.3305664-0.9804688-0.8076172   c-0.105957-0.5419922,0.2470703-1.0673828,0.7890625-1.1738281c7.6704111-1.5043945,9.114747-7.3432617,9.3745127-9.0966797   c0.0810547-0.5458984,0.590332-0.9223633,1.1357422-0.8427734c0.5463867,0.0810547,0.9238281,0.5893555,0.8427734,1.1357422   C22.1007557,14.2014198,20.398119,21.1296425,11.4410868,22.8864784z"/></g><text x="0" y="67" fill="#000000" font-size="5px" font-weight="bold" font-family="'Helvetica Neue', Helvetica, Arial-Unicode, Arial, Sans-serif">Created by Dinosoft Labs</text><text x="0" y="72" fill="#000000" font-size="5px" font-weight="bold" font-family="'Helvetica Neue', Helvetica, Arial-Unicode, Arial, Sans-serif">from the Noun Project</text></svg>